<svg width="1280" height="720" viewBox="0 0 1280 720" fill="none" xmlns="http://www.w3.org/2000/svg">
  <rect width="1280" height="720" fill="#F1F5F9"/>
  <g opacity="0.3">
    <path d="M640 260C640 257.791 641.791 256 644 256H676C678.209 256 680 257.791 680 260V284H720V260C720 235.699 700.301 216 676 216H644C619.699 216 600 235.699 600 260V284H640V260Z" fill="#475569"/>
    <path d="M560 304C557.791 304 556 305.791 556 308V476C556 478.209 557.791 480 560 480H720C722.209 480 724 478.209 724 476V308C724 305.791 722.209 304 720 304H560ZM600 344H680V364H600V344ZM600 384H680V404H600V384ZM600 424H680V444H600V424Z" fill="#475569"/>
  </g>
  <text x="640" y="540" font-family="sans-serif" font-size="24" fill="#64748B" text-anchor="middle">イベント画像</text>
</svg>
